<mxfile host="app.diagrams.net" modified="2023-11-04T13:51:23.057Z" agent="Mozilla/5.0 (Windows NT 6.3; Win64; x64) AppleWebKit/537.36 (KHTML, like Gecko) Chrome/109.0.0.0 Safari/537.36" etag="r2VM2sIgg-pi3JZU-8qI" version="22.0.8" type="google">
  <diagram name="Strona-1" id="zoptbE2EZgR3d_YFr-1y">
    <mxGraphModel grid="1" page="1" gridSize="10" guides="1" tooltips="1" connect="1" arrows="1" fold="1" pageScale="1" pageWidth="827" pageHeight="1169" math="0" shadow="0">
      <root>
        <mxCell id="0" />
        <mxCell id="1" parent="0" />
        <mxCell id="o9r83_PA6LXSPtJCvhbS-1" value="Narysuj schemat blokowy algorytmu rozwiązywania równania kwadratowego w postaci ax2 +&#xa;bx + c = 0. Wartości a, b, c są podawane przez użytkownika. Proszę uwzględnić sytuację w&#xa;których delta jest dodatnia, ujemna i zerem. Zakładamy że zawsze są wprowadzone poprawne&#xa;współczynniki (a zawsze jest różne od zera)." style="text;whiteSpace=wrap;html=1;" vertex="1" parent="1">
          <mxGeometry x="40" y="40" width="560" height="80" as="geometry" />
        </mxCell>
        <mxCell id="o9r83_PA6LXSPtJCvhbS-5" value="" style="edgeStyle=orthogonalEdgeStyle;rounded=0;orthogonalLoop=1;jettySize=auto;html=1;" edge="1" parent="1" source="o9r83_PA6LXSPtJCvhbS-3" target="o9r83_PA6LXSPtJCvhbS-4">
          <mxGeometry relative="1" as="geometry" />
        </mxCell>
        <mxCell id="o9r83_PA6LXSPtJCvhbS-3" value="START" style="strokeWidth=2;html=1;shape=mxgraph.flowchart.start_2;whiteSpace=wrap;" vertex="1" parent="1">
          <mxGeometry x="280" y="180" width="100" height="100" as="geometry" />
        </mxCell>
        <mxCell id="o9r83_PA6LXSPtJCvhbS-7" value="" style="edgeStyle=orthogonalEdgeStyle;rounded=0;orthogonalLoop=1;jettySize=auto;html=1;" edge="1" parent="1" source="o9r83_PA6LXSPtJCvhbS-4" target="o9r83_PA6LXSPtJCvhbS-6">
          <mxGeometry relative="1" as="geometry" />
        </mxCell>
        <mxCell id="o9r83_PA6LXSPtJCvhbS-4" value="Wprowadź&amp;nbsp;&lt;br&gt;A, B, C" style="shape=parallelogram;html=1;strokeWidth=2;perimeter=parallelogramPerimeter;whiteSpace=wrap;rounded=1;arcSize=12;size=0.23;" vertex="1" parent="1">
          <mxGeometry x="235" y="310" width="190" height="70" as="geometry" />
        </mxCell>
        <mxCell id="o9r83_PA6LXSPtJCvhbS-9" value="" style="edgeStyle=orthogonalEdgeStyle;rounded=0;orthogonalLoop=1;jettySize=auto;html=1;" edge="1" parent="1" source="o9r83_PA6LXSPtJCvhbS-6" target="o9r83_PA6LXSPtJCvhbS-8">
          <mxGeometry relative="1" as="geometry" />
        </mxCell>
        <mxCell id="o9r83_PA6LXSPtJCvhbS-6" value="Delta = b^2 - 4ac" style="rounded=1;whiteSpace=wrap;html=1;absoluteArcSize=1;arcSize=14;strokeWidth=2;" vertex="1" parent="1">
          <mxGeometry x="280" y="420" width="100" height="40" as="geometry" />
        </mxCell>
        <mxCell id="o9r83_PA6LXSPtJCvhbS-8" value="Delta &amp;lt; 0" style="strokeWidth=2;html=1;shape=mxgraph.flowchart.decision;whiteSpace=wrap;" vertex="1" parent="1">
          <mxGeometry x="280" y="490" width="100" height="100" as="geometry" />
        </mxCell>
      </root>
    </mxGraphModel>
  </diagram>
</mxfile>
